<svg width="1105.4" height="836.76" xmlns="http://www.w3.org/2000/svg"><path fill="#fff" d="M0 0h1105.4v836.76H0z"/><path d="M284.81 730.36c1.688 0 3.143 1.31 2.367 4.65l-7.8 1.87c1.368-3.75 3.648-6.52 5.471-6.52m4.327 13h-1.552c-1.94 2.39-4.055 4.27-6.15 4.27s-3.23-1.32-3.23-4.27a17.383 17.92 0 0 1 .358-3.57l12.611-4.28c2.464-6-.495-8.64-3.958-8.64-5.966 0-12.756 10.29-12.756 19.3 0 4 1.862 6.25 4.782 6.25 3.415 0 6.965-3.43 9.885-9.06m-2.503-18.88 8.876-8.55v-1h-4.811l-5.461 9.54zm-27.239 6h4.19l-6.654 18.73c-.592 1.6.223 3.2 1.824 3.2 3.783 0 9.885-3.85 12.029-9.11h-1.194c-1.678 1.83-4.918 4.27-7.692 4.79l6.102-17.61h6.237l.776-2.68h-6.053l2.318-6.76h-2.415l-4.327 6.76-5.14.75zm-5.655-.89c.504-1.74-.63-2.73-1.504-2.73-3.638 0-7.964 3.38-9.7 8.13h1.183c1.183-1.74 3.191-3.67 5.054-4l-6.965 18.69a1.824 1.88 0 0 0 1.504 2.73c3.463 0 7.518-3.43 9.244-8.13h-1.183c-1.184 1.74-3.192 3.67-5.054 4zm1.28-9.4a3.007 3.1 0 1 0-3.007-3.1 2.968 3.06 0 0 0 3.007 3.1M214.888 749c-.912 2.12 0 3.48 2.047 3.48 1.231 0 1.775-.33 2.28-1.69l4.85-13.2c2.23-2.82 6.79-5.82 8.652-5.82 1.32 0 1.135 1.13.272 2.82l-7.42 14.69a2.095 2.16 0 0 0 1.813 3.2c3.647 0 7.974-3.38 9.7-8.13H235.9c-1.193 1.74-3.191 3.67-5.064 4L237.21 735a10.428 10.75 0 0 0 1.232-4.56 3.143 3.24 0 0 0-3.376-3.57c-3.143 0-6.335 3.67-10.108 8.17v-3.47c0-2.49-.776-4.7-2.968-4.7-1.368 0-2.688 1.22-3.88 3v.47c2.376-.14 3.424 3.52 1.736 7.37zm-.097-16.34c.873-3.05.417-5.73-1.863-5.73-2.687 0-3.376 2.12-6.102 8.17v-3.47c0-2.49-.776-4.7-2.968-4.7-2.551 0-4.85 4.09-6.645 8.13h1.184c1.232-1.84 2.367-2.92 3.278-2.92 1.097 0 1.688 1.74 0 5.59L196.757 749c-.912 2.12 0 3.48 2.047 3.48 1.232 0 1.775-.33 2.28-1.69l4.85-13.2c1.368-1.74 2.59-3.24 4.142-4.93zm-27.967-2.25c1.688 0 3.143 1.31 2.367 4.65l-7.79 1.82c1.358-3.75 3.638-6.52 5.462-6.52m4.326 13h-1.542c-1.94 2.39-4.055 4.27-6.15 4.27s-3.24-1.32-3.24-4.27a16.695 17.21 0 0 1 .368-3.57l12.611-4.28c2.464-6-.495-8.64-3.958-8.64-5.966 0-12.756 10.29-12.756 19.3 0 4 1.872 6.25 4.782 6.25 3.415 0 6.975-3.43 9.885-9.06m-29.78-12.86h4.19l-6.655 18.73c-.591 1.6.233 3.2 1.824 3.2 3.783 0 9.885-3.85 12.029-9.11h-1.184c-1.688 1.83-4.928 4.27-7.702 4.79l6.102-17.61h6.247l.766-2.68h-6.053l2.319-6.76h-2.416l-4.326 6.76-5.142.75zm-23.01 14.6c0-5.77 6.247-13.62 9.749-13.62a7.76 8 0 0 1 2.143.29l-3.647 10c-2.095 2.63-5.326 5.82-6.79 5.82-.864 0-1.417-.75-1.417-2.49m19.178-19.3-1.94-.14-2.144 2.16h-.456c-10.38 0-19.352 12-19.352 20.76a3.444 3.55 0 0 0 3.735 3.85c2.687 0 5.325-3.95 8.284-8.17l-.136 1.5c-.359 4.32.912 6.67 3.104 6.67 2.551 0 4.85-4.09 6.645-8.13h-1.183c-1.232 1.84-2.367 2.92-3.28 2.92s-1.639-1.79 0-5.59zm-22.136 6.81c.863-3.05.407-5.73-1.863-5.73-2.687 0-3.376 2.12-6.111 8.17v-3.47c0-2.49-.767-4.7-2.959-4.7-2.551 0-4.85 4.09-6.645 8.13h1.184c1.222-1.84 2.367-2.92 3.278-2.92 1.087 0 1.679 1.74 0 5.59L117.377 749c-.912 2.12 0 3.48 2.047 3.48 1.232 0 1.775-.33 2.28-1.69l4.85-13.2c1.368-1.74 2.6-3.24 4.152-4.93zm-34.923 18.88.456-1.46c-6.053-1.17-6.79-1.17-4.413-8l2.454-7h6.684c3.007 0 3.055 1.27 2.6 4.65h1.736l4.006-11.32h-1.736c-1.504 2.68-2.687 4.65-5.966 4.65H99.77l3.511-9.9c1.096-3.15 1.727-3.81 5.82-3.81h2.91c4.24 0 4.744 1.18 4.744 5.59h1.688l1.407-7.7H94.717l-.456 1.45c4.85 1 5.325 1.51 3.055 8l-5.47 15.4c-2.28 6.43-3.231 7-8.838 8l-.407 1.46zM223.812 671.66c1.688 0 3.143 1.31 2.367 4.65l-7.828 1.88c1.358-3.76 3.638-6.53 5.461-6.53m4.327 13h-1.543c-1.94 2.39-4.055 4.27-6.15 4.27s-3.24-1.32-3.24-4.27a16.695 17.21 0 0 1 .369-3.57l12.61-4.28c2.455-6-.504-8.64-3.967-8.64-5.966 0-12.756 10.29-12.756 19.3 0 4 1.872 6.25 4.782 6.25 3.415 0 6.975-3.43 9.885-9.06m-2.503-18.88 8.886-8.55v-1h-4.782l-5.472 9.53zm-27.239 6h4.19l-6.625 18.76c-.592 1.59.233 3.19 1.824 3.19 3.783 0 9.885-3.85 12.029-9.11h-1.242c-1.688 1.83-4.918 4.27-7.702 4.79l6.101-17.61h6.247l.777-2.68h-6.063l2.318-6.76h-2.406l-4.336 6.76-5.141.75zm-5.646-.89c.495-1.74-.64-2.73-1.503-2.73-3.648 0-7.974 3.38-9.701 8.13h1.184c1.193-1.74 3.191-3.67 5.063-4L180.81 691a1.814 1.87 0 0 0 1.504 2.72c3.463 0 7.518-3.43 9.254-8.13h-1.193c-1.183 1.74-3.182 3.67-5.054 4zm1.271-9.4a3.007 3.1 0 1 0-3.007-3.09 2.968 3.06 0 0 0 3.007 3.09M169.76 689.6l12.708-34.33-.407-.52-7.974.94v1l1.552 1.22c1.407 1.13.97 2.21-.32 5.68l-9.933 27a2.095 2.16 0 0 0 1.823 3.19c3.648 0 7.518-3.38 9.245-8.13h-1.184a10.312 10.63 0 0 1-5.51 4m-24.144-3.2c0-5.77 6.237-13.62 9.749-13.62a7.76 8 0 0 1 2.144.29l-3.648 10c-2.095 2.63-5.325 5.82-6.79 5.82-.873 0-1.416-.75-1.416-2.49m19.178-19.3-1.94-.14-2.144 2.16h-.456c-10.39 0-19.401 12-19.401 20.76a3.453 3.56 0 0 0 3.734 3.85c2.687 0 5.336-4 8.294-8.17l-.136 1.5c-.368 4.32.912 6.67 3.095 6.67 2.551 0 4.85-4.09 6.655-8.13h-1.184c-1.232 1.84-2.367 2.92-3.279 2.92s-1.64-1.79 0-5.59zm-46.37 31.18c0-2.48 2.32-4 5.646-5.4a40.403 41.65 0 0 0 4.919 1.93c3.463 1.17 4.782 1.64 4.782 2.72 0 2.3-3.783 4-8.924 4-4.327 0-6.422-.94-6.422-3.29m9.429-15.16c-1.504 0-2.096-1.32-2.096-2.82 0-4.18 2.183-10.33 5.598-10.33 1.503 0 2.095 1.31 2.095 2.81 0 4.18-2.183 10.34-5.597 10.34m9.856 12.87c0-3-2.6-4.08-6.84-5.4-3.637-1.12-5.277-1.45-5.277-2.67 0-1 .767-2.16 2.319-3a10.67 11 0 0 0 9.836-10.52 6.13 6.32 0 0 0-.494-2.58h5.054l.776-2.68H135.1a6.18 6.37 0 0 0-3.23-.94 10.564 10.89 0 0 0-10.428 10.38 5.869 6.05 0 0 0 4.85 6.25c-2.959 1.36-4.598 3-4.598 4.83a2.91 3 0 0 0 1.232 2.54c-6.79 2.07-9.526 4.41-9.526 7.75s4.152 4.6 9.07 4.6c8.333 0 15.308-4.65 15.308-8.55m-31.847-20.1c3.007 0 3.055 1.27 2.6 4.65h1.726l4.016-11.31h-1.746c-1.504 2.67-2.687 4.64-5.966 4.64h-6.645l3.327-9.43c1.097-3.15 1.727-3.76 5.82-3.76h2.911c4.24 0 4.744 1.17 4.744 5.54h1.688l1.406-7.7H94.717L94.26 660c4.85 1 5.325 1.51 3.055 8l-5.47 15.4c-2.28 6.43-3.231 6.95-8.838 8l-.407 1.46h27.986l5.015-8.17h-1.94c-3.192 3.1-7.198 6.06-12.805 6.06-7.42 0-6.79-.33-4.278-7.33l2.639-7.47zm3.686-19.7 8.886-6.29v-1h-5.384l-4.919 7.28zM220.854 613c1.687 0 3.143 1.31 2.367 4.65l-7.868 1.84c1.368-3.76 3.648-6.53 5.471-6.53m4.327 13h-1.552c-1.94 2.39-4.055 4.27-6.15 4.27s-3.23-1.32-3.23-4.27a17.461 18 0 0 1 .358-3.57l12.611-4.28c2.464-6-.495-8.64-3.958-8.64-5.966 0-12.756 10.29-12.756 19.3 0 4 1.862 6.25 4.782 6.25 3.415 0 6.965-3.43 9.885-9.06m-2.503-18.88 8.877-8.55v-1h-4.783l-5.461 9.53zm-26.104 6h3.327l-6.654 18.74c-.592 1.59.233 3.19 1.824 3.19 3.783 0 9.884-3.85 12.028-9.11h-1.183c-1.688 1.83-4.928 4.27-7.702 4.79l6.101-17.61h6.247l.767-2.68h-6.053l2.318-6.76h-2.415l-4.327 6.76-4.278.75zm-3.279 2.11c.864-3.05.408-5.73-1.872-5.73-2.687 0-3.366 2.12-6.102 8.17v-3.47c0-2.49-.776-4.7-2.91-4.7-2.551 0-4.85 4.09-6.654 8.13h1.183c1.232-1.83 2.377-2.91 3.279-2.91 1.096 0 1.688 1.73 0 5.58l-4.918 11.27c-.912 2.12.048 3.48 2.056 3.48a2.027 2.09 0 0 0 2.27-1.69l4.85-13.2c1.368-1.73 2.6-3.24 4.152-4.93zM165.327 613c1.679 0 3.143 1.31 2.367 4.65l-7.838 1.88c1.368-3.76 3.648-6.53 5.471-6.53m4.327 13h-1.552c-1.94 2.39-4.055 4.27-6.15 4.27s-3.23-1.32-3.23-4.27a17.461 18 0 0 1 .358-3.57l12.61-4.28c2.465-6-.504-8.64-3.967-8.64-5.965 0-12.746 10.29-12.746 19.3 0 4 1.862 6.25 4.782 6.25 3.415 0 6.965-3.43 9.885-9.06m-30.925 5.23c-1.232 0-3.008-1.18-3.008-2.21a26.056 26.86 0 0 1 1.232-3.62l2.047-5.59c2.193-2.67 5.52-5.54 7.382-5.54 1.145 0 2.008.75 2.008 2.49 0 5.12-4.646 14.47-9.7 14.47m14.347-16.53c0-3.81-1.358-5.22-3.88-5.22-3.192 0-6.199 3.48-9.206 7.7l7.605-20.61-.407-.52-7.974.94v1l1.552 1.22c1.406 1.13.97 2.3-.32 5.68l-8.197 21.79a24.62 25.38 0 0 0-1.33 4c0 2.26 2.97 4.37 5.656 4.37 6.19 0 16.491-11.51 16.491-20.33m-24.775-2.49a1.872 1.93 0 0 0-1.504-2.73c-3.647 0-7.974 3.38-9.7 8.13h1.183c1.184-1.74 3.182-3.67 5.054-4l-6.868 18.68a1.814 1.87 0 0 0 1.455 2.69c3.454 0 7.509-3.43 9.245-8.12h-1.184c-1.183 1.73-3.191 3.66-5.063 4zm1.27-9.39a3.007 3.1 0 1 0-3.006-3.1 3.007 3.1 0 0 0 3.007 3.1m-18.354-3H94.63l-.456 1.46c4.85 1 5.326 1.5 3.046 8l-5.374 15.4c-2.28 6.43-3.23 7-8.837 8l-.407 1.46h25.221l5.481-10.16h-1.94c-3.104 3.52-6.79 7.94-12.349 7.94-4.24 0-4.734-.75-2.454-7.33l5.374-15.4c2.231-6.43 3.23-7 8.837-8z"/><path d="M181.65 160c.91-.91 1.84-1.89 2.75-2.88a55.32 55.32 0 0 1 5.36-5.47 17.66 17.66 0 0 1 1.75-1.39c.16-.16.16-.49.32-.65-.8.32-1.28 1-2.09 1.29-.16 0-.32-.16-.16-.32l1.72-1.29h-.11c-.16 0-.16-.16-.16-.32-2.09-.32-3.7 1.13-5.14 2.41-.33.16-.65-.16-.81-.16-2.41.8-4.18 2.89-6.59 3.86v-.32a30.78 30.78 0 0 1-2.89 1.12 17.26 17.26 0 0 1-4 .16 56.77 56.77 0 0 0-5.84 1h-.17a13.78 13.78 0 0 0-3 1.21l-.11.06a3.48 3.48 0 0 1-.24.28 3.74 3.74 0 0 1-1.1 1 16.53 16.53 0 0 0-2.66 2.09.45.45 0 0 1-.26.08c-.86.83-1.71 1.67-2.59 2.48a.78.78 0 0 1-.49.06c0-.06.07-.11.1-.16l.41-.68c.15-.25.31-.5.48-.74s.44-.66.68-1a.15.15 0 0 0 0-.21.28.28 0 0 0-.22-.09 15.52 15.52 0 0 1 2.7-2c-.11 0-.26 0-.18-.16s.18-.29.27-.44l.06-.14a.8.8 0 0 1-.13-.13 5.92 5.92 0 0 0-.75.53c-.39.35-.69 1.06-1.27 1.05h-.24l-.17-.06.08-.14c0-.05 0-.1.08-.14l.06-.11.11-.21.09-.14c.07-.12.14-.24.2-.36a1 1 0 0 0 .1-.17l.18-.29a.2.2 0 0 0-.13-.29 3.91 3.91 0 0 1 1.1-1c.61-.31 1.23-.68 1.84-1l.27-.23a11.28 11.28 0 0 0-2.56 1.26 1.32 1.32 0 0 0-.27.15s-.18.07-.4-.15a.18.18 0 0 1 0-.11c.16-.33.64-.49 1-.81.16 0 .32 0 .32.16 5.14-4 12.21-3.05 18.16-5.14l1.44-1c.81-.33 1.45-1.13 2.41-1.61a7.09 7.09 0 0 0 2.74-3.7.56.56 0 0 0-.16-.32 24.56 24.56 0 0 1-7.08 5.3c-3.37 1.77-7.07 1.45-10.6 1.93.16-.32.48-.32.8-.32 0-.48.32-.64.64-1h.49c.16 0 .16-.32.32-.32.32 0 .8-.16.64-.16-.48-.65-1.45.48-2.25 0 .32-.33.16-.81.48-1h.64a1.11 1.11 0 0 1 .33-.64c2.41-1.45 4.66-2.57 6.91-3.86-.49 0-.81.48-1.29.16.32 0 0-.48.32-.48 1.77-.48 3.22-1.45 5-2.09-.64 0-1.12.48-1.76 0 .32-.16.48-.48 1-.48v-.48c0-.16.16-.16.32-.16a.55.55 0 0 1-.32-.17c.16-.32.64-.16 1-.48-.17 0-.49 0-.49-.16a3.22 3.22 0 0 1 2.09-1c-.16-.32-.64 0-.64-.32 0-.16.16-.16.32-.16h-.32c-.32-.16-.16-.49-.16-.65 1-1.12 1-2.57 1.45-3.85-.17 0-.33 0-.33-.17-1.6 1.77-4.17 2.42-6.59 3.06h-.8a3.27 3.27 0 0 1-2.73-.16 11.37 11.37 0 0 1-1.61-1.29 18.84 18.84 0 0 0-4-1.93 36.17 36.17 0 0 0-12.37-1.76c1.77-1 3.72-1.05 5.62-1.61 2.74-.8 5.31-1.77 8.2-1.61a5.43 5.43 0 0 0-1.61 0c-2.25-.16-4.5.48-6.91 1-1.6.32-3.05 1-4.66 1.28-1 .32-1.44 1.29-2.57 1.13v-.49c1.61-1.92 3.54-3.85 6.11-4 2.89-.49 5.62 0 8.52.32a41 41 0 0 1 6.1 1.12c.81 0 1 1.29 1.61 1.45 1 .32 1.93 0 2.89.64 0-.32-.16-.64 0-1 .65-.64 1.45.16 2.09-.16 1.29-.81-1.12-2.25-1.77-3.38a.56.56 0 0 1 .16-.32c1.29 1.13 2.25 2.41 3.86 3.22.81.32 2.73.8 2.41-.17-.8-1.76-2.41-3.21-3.69-4.82V124c-.33 0-.33-.16-.49-.32v-.64c-.64-.33-.48-1-.8-1.45-.48-.8-.16-1.93-.48-2.89a17 17 0 0 1-.64-2.74c-.49-2.73-1.13-5.14-1.45-7.71-.32-3.05 1.77-5.46 3.21-8.2A13.89 13.89 0 0 1 183 95a14.17 14.17 0 0 1 3-5.19 13.45 13.45 0 0 1 5-3.22 43.16 43.16 0 0 1 4.26-1.59H85v85h78.1c3.06-2.2 6.12-3.25 10.39-5.35 1.98-.99 6.6-3.11 8.16-4.65zm-24.71-11.51c-.32 0-1 .16-.81-.16.17-.81 1.29-.81 1.93-1.13.32-.16.81-.48 1.13-.32.32.48.8.32 1.12.64-.96.95-2.25.48-3.37.95zm-24.59-3.54a.56.56 0 0 1-.16-.32 48.81 48.81 0 0 0 5.14-8.2 22.19 22.19 0 0 0 5.47-4.49 31.13 31.13 0 0 1 9-7.08 6.23 6.23 0 0 1 4.2.14c-.48.65-1.28.49-1.92 1a.6.6 0 0 1-.49-.16.59.59 0 0 0 .16-.48c-1.6 1.76-3.85 2.57-5.14 4.66-1 1.6-1.61 3.69-3.69 4.17-.65.17.16-.48-.17-.32-5.01 3.03-8.54 6.72-12.4 11.06zm13.34-10.6c-.16.32-.34.35-.48.64a1.23 1.23 0 0 1-.65.64c-.16 0-.32 0-.32-.16a2 2 0 0 1 1.29-1.45c.16-.02.16.14.16.31zm7.46 24.07a1.33 1.33 0 0 1-.39.47c.2 0 .34.13.21.25a3.45 3.45 0 0 1-1.22.85h-.25c-.19.19-.39.38-.6.56s-1.07 0-.8-.2.79-.75 1.19-1.12a8 8 0 0 0 .67-.64 1.88 1.88 0 0 1 .34-.35c.13-.08.98-.15.85.16zm-2.88-1.32c-.6.43-1.2.86-1.83 1.23s-1.41.7-2.12 1a.22.22 0 0 0-.27-.07 7.57 7.57 0 0 0-1.62 1.24l-.23.21c-.08.07-.15.15-.23.23l-.35.37a.77.77 0 0 1-.21.23c-.1.06-.38.06-.35-.12l-.29.14-.25.14h-.22l-.58.49a9.75 9.75 0 0 0-.94 1l-.05.06v.07l-.11.16a.26.26 0 0 1-.13.06l-.07-.09v-.08a2.15 2.15 0 0 1-.14-.26.2.2 0 0 1 0-.08c.17-.18.34-.38.5-.58l.17-.21.27-.34a1.47 1.47 0 0 1 .1-.13l.5-.68a.36.36 0 0 0 .07-.1c.08-.11.15-.23.22-.34l.18-.32a.14.14 0 0 0 0-.06c.06-.12.11-.25.16-.38v-.1c0-.06 0-.12.05-.18a1.69 1.69 0 0 0 0-.24.12.12 0 0 0 0-.1 4.87 4.87 0 0 1 .64-.87h-.07c-.23.15-.39.36-.6.52s-.5-.09-.29-.25a4 4 0 0 0 .37-.33 9.07 9.07 0 0 1 .82-.82 5.43 5.43 0 0 0 .5-.38l.07-.06a3.52 3.52 0 0 1 .36-.41c1.54-1.49 4.13-1.42 6.16-2.37.8-.32 1.77.16 2.57 0a2.36 2.36 0 0 1 1.45.33c-1.56.73-2.89 1.62-4.21 2.45zm3.29-11.18c-.16-.16.49 0 .65-.32h-1.29c-.16 0-.16-.17-.16-.33-.8.16-1.77.49-2.57.65-1.13.32-2.09 1.12-3.38 1.44-1.76.65-3.21 2.09-5.14 2.74-.16 0-.16-.17-.16-.33.16-.48.8-.64 1.12-1.12 0-.16 0-.32-.16-.32 1.29-1.77 3.06-2.73 4.66-4.18v-.48c.49-.65 1.29-1 1.61-1.77a2.92 2.92 0 0 1 1.61-1.45c-.16-.16-.48-.16-.48-.48-.65 0-1.29.32-1.93-.16a2.28 2.28 0 0 1 1-.57.62.62 0 0 1-.37-.23c-.16-.32.31-.68.8-.81.65-.16 1.45-.16 1.93-.64-1.12-.16-2.41.32-3.53-.32a8.55 8.55 0 0 1 4-4.82c.16 0 .48 0 .48.16a1.56 1.56 0 0 1-1.29 1.6 17.62 17.62 0 0 1 3.86 1c-.16.32-.48.16-.64.16.8.48 1.76.16 2.57.8-.48.49-1 0-1.45 0 5 1.45 10.29 2.58 14.46 5.79a44 44 0 0 1-11.08 3.37 3.55 3.55 0 0 1-1.29-.16c0 .16 0 .49-.16.49a2.66 2.66 0 0 0-1.61.32 2 2 0 0 1-2.06-.05z" style="fill:#000091" transform="scale(.97006 1)"/><path d="M318.84 85h-91.48a4.07 4.07 0 0 1 .86.41l2.31 1.22a7.59 7.59 0 0 1 3.07 2.58c.32.48.8 1.44.48 2.09s-.48 2.08-1.29 2.41a6 6 0 0 1-3.37.32 8.11 8.11 0 0 1-1.93-.32c2.41 1 4.66 2.09 6.27 4.34.16.32.8.48 1.44.48.16 0 .16.32.16.48-.32.32-.64.48-.48 1h.48c.81-.32.65-1.92 1.77-1.44a1.81 1.81 0 0 1 .65 2.41 19.36 19.36 0 0 1-1.93 1.61 1.37 1.37 0 0 0 0 1.12 5 5 0 0 1 .8 1.93c.48 1.12.64 2.41 1.13 3.53a22.77 22.77 0 0 1 1.12 7.24c0 1.28-.64 2.41-.16 3.69a13.31 13.31 0 0 0 1.77 3.38 25.14 25.14 0 0 1 1.77 2.57c1 1.61 2.73 3.21 1.92 5.14-.48 1.13-2.25 1-3.37 1.61-1 .8-.16 2.09.32 2.89.8 1.45-1 2.41-2.09 2.89.32.49 1 .33 1.13.65.16.8 1 1.28.48 2.09-.65 1-2.57 1.44-1.61 2.89.64 1.12.23 2.37-.16 3.53a4 4 0 0 1-2.89 2.42 6.62 6.62 0 0 1-3.06.16 2.3 2.3 0 0 0-1-.33c-2.73-.32-5.46-1.12-8.2-1.12a9.38 9.38 0 0 0-2.25.64 14.78 14.78 0 0 0-1.94 1.72l-.35.39-.21.25-.14.17a14.7 14.7 0 0 0-1.26 1.85l-.07.12-.13.23a15.87 15.87 0 0 0-1.21 2.94c-1.1 3.68-.62 6.84.15 7.61.21.21 5.3 1.78 8.85 3.36A29.63 29.63 0 0 1 229 170h89.84z" style="fill:#e1000f" transform="scale(.97006 1)"/><path d="M232.8 116c.64.16 1.6.16 1.6.48-.32 1.29-2.25 1.61-3.21 2.9h-.48c-.48.32-.32 1.12-.81 1.12a2.26 2.26 0 0 0-1.44.16 2.73 2.73 0 0 0 2.41 1 .73.73 0 0 1 .48.65.5.5 0 0 0 .32-.16c.16 0 .32 0 .32.16v.64c-.48.64-1.28.32-1.93.48a7.24 7.24 0 0 0 3.7 0c1-.32 0-1.93.64-2.73-.32 0 0-.48-.32-.48a5.91 5.91 0 0 1 1-1 1.14 1.14 0 0 0 1-.48c0-.32-.64-.48-.48-.8 1-.64 1.77-1.61 1.45-2.57-.17-.48-1.45-.48-2.25-.81a5.42 5.42 0 0 0-2.74.16 13.7 13.7 0 0 0-2.41.65 11.12 11.12 0 0 0-3.05 1.6 22.74 22.74 0 0 1 3.53-1 10.47 10.47 0 0 1 2.67.03z" style="fill:#9d9d9c" transform="scale(.97006 1)"/><path d="M82.824 212.53H98.5l15.143 26.84 15.142-26.84h15.667v63.9h-12.524V230.6l-13.813 23.92h-8.857L95.405 230.6v45.83h-12.61zM161.719 212.53h12.61v63.9h-12.61zM191.645 212.53h16.113l27.714 46.19v-46.19h12.611v63.9h-16.151l-27.715-46.19v46.19h-12.61zM265.399 212.53h12.61v63.9H265.4zM298.866 258.9c3.725 4.93 8.73 7.85 13.726 7.85s7.974-2.74 7.974-7.3c0-11.78-28.132-8.58-28.132-30.21 0-10.14 8.149-18.53 20.013-18.53 9.293 0 16.384 4.29 21.69 10.77l-9.206 8.58c-3.628-4.84-7.702-8-12.397-8-4.424 0-7.343 2.93-7.343 6.76 0 11.59 28.131 8.31 28.131 30.21-.174 12.05-9.293 19.26-20.633 19.26-10.447 0-17.46-3.92-22.932-10.68zM339.686 212.53h50.831v11.78h-19.13v52.12h-12.61v-52.12h-19.091zM401.605 212.53h36.135v10.77h-23.583v15.15h20.013v10.78h-20.013v16.43h23.553v10.77h-36.105zm1.067-17.8h12.902l10.001 12.33H414.07zM452.32 212.53h18.945c13.639 0 22.05 7.21 22.05 19.08 0 7.76-3.638 13.51-10.012 16.52l19.401 28.3H487.94l-16.588-25.84h-6.46v25.84H452.28zm12.61 10.77v16.52h7.082c5.316 0 8.41-3.19 8.41-8.39 0-4.84-3.094-8.13-8.41-8.13zM510.669 212.53h36.125v10.77H523.24v15.15h19.993v10.78H523.24v16.43h23.553v10.77h-36.125zM82.824 304.82h24.358c19.653 0 32.982 14.7 32.982 31.95s-13.28 32-32.934 32H82.824zm12.61 11.78v40.34h11.952c11.505 0 19.828-8.85 19.828-20.17s-8.323-20.17-19.828-20.17zM152.241 304.82h36.135v10.77h-23.553v15.16h20.003v10.77h-20.003V358h23.553v10.77h-36.135zM226.024 304.82h12.61v52.12h23.554v11.78h-36.164zM259.472 331.11l7.964-26.29h12.756l-10.273 26.29zM290.048 304.82h36.125v10.77h-23.582v15.16h20.012v10.77h-20.012V358h23.553v10.77h-36.096zM340.753 304.82h16.113L384.58 351v-46.18h12.611v63.9H381.04l-27.715-46.19v46.19h-12.61zM418.096 351.19c3.715 4.93 8.682 7.85 13.726 7.85s7.964-2.74 7.964-7.3c0-11.78-28.131-8.58-28.131-30.21 0-10.14 8.148-18.53 20.012-18.53 9.293 0 16.375 4.29 21.69 10.77l-9.205 8.58c-3.638-4.84-7.703-8-12.398-8-4.433 0-7.353 2.93-7.353 6.76 0 11.59 28.132 8.31 28.132 30.21-.175 12.05-9.303 19.26-20.633 19.26-10.448 0-17.461-3.92-22.932-10.68zM465.687 304.82h36.125v10.77H478.24v15.16h20.012v10.77H478.24V358h23.572v10.77h-36.125zM516.421 304.82h12.61v63.9h-12.61zM589.292 352.83V341.7h-15.763v-11.05h28.335v26.84c-5.752 7.94-15.405 13.05-27.006 13.05-20.1 0-33.826-15.52-33.826-33.77S554.399 303 574.014 303c11.243 0 20.448 5.2 26.114 13l-9.914 7.94a19.401 20 0 0 0-16.2-8.76c-11.69 0-20.013 9.4-20.013 21.63s8.73 21.63 20.895 21.63a20.701 21.34 0 0 0 14.396-5.61zM615.852 304.82h16.113L659.641 351v-46.18h12.61v63.9H656.14l-27.715-46.19v46.19h-12.61zM689.606 304.82h36.125v10.77h-23.553v15.16h20.012v10.77h-20.012V358h23.553v10.77h-36.125zM740.34 304.82h15.676l15.182 26.84 15.142-26.84h15.667v63.9h-12.611V322.9l-13.814 23.91h-8.856l-13.814-23.91v45.82h-12.61zM819.235 304.82h36.125v10.77h-23.553v15.16h20.012v10.77h-20.012V358h23.553v10.77h-36.125zM869.97 304.82h16.112L913.797 351v-46.18h12.61v63.9h-16.151l-27.715-46.19v46.19h-12.61zM937.35 304.82h50.821v11.78H969.09v52.12h-12.61V316.6h-19.13zM86.335 443.48c3.725 4.93 8.73 7.85 13.727 7.85s7.974-2.74 7.974-7.3c0-11.78-28.132-8.58-28.132-30.21 0-10.14 8.148-18.53 20.012-18.53 9.293 0 16.384 4.29 21.69 10.77l-9.205 8.58c-3.628-4.84-7.702-8-12.398-8-4.423 0-7.343 2.92-7.343 6.75 0 11.59 28.132 8.31 28.132 30.21-.175 12.05-9.293 19.26-20.633 19.26-10.448 0-17.461-3.92-22.933-10.68zM169.867 397.11h12.611V436c0 16.79-9.565 26.83-25.144 26.83s-25.057-10-25.057-26.83v-38.89h12.611v40c0 8.58 4.695 13.6 12.61 13.6 7.703 0 12.486-5 12.486-13.6zM198.018 397.11h20.459c13.63 0 21.962 7.21 21.962 19.08s-8.333 19-21.962 19h-7.887V461h-12.61zm12.611 10.77v16.52h8.42c5.306 0 8.498-3.19 8.498-8.39 0-4.84-3.192-8.13-8.498-8.13zM250.79 397.11h36.125v10.77h-23.553V423h20.012v10.77h-20.012v16.43h23.553V461H250.79zm12.222-5.47 10.002-12.33h12.93l-11.514 12.33zM301.524 397.11h18.955c13.63 0 22.05 7.21 22.05 19.08 0 7.76-3.639 13.51-10.012 16.52l19.401 28.3h-14.793l-16.559-25.83h-6.47V461h-12.611zm12.61 10.77v16.52h7.092c5.306 0 8.41-3.19 8.41-8.39 0-4.84-3.104-8.13-8.41-8.13zM359.892 397.11h12.611V461h-12.61zM389.8 397.11h36.134v10.77H402.38V423h20.003v10.77H402.38v16.43h23.553V461h-36.135zM476.755 397.11h12.611V436c0 16.79-9.565 26.83-25.144 26.83s-25.066-10-25.066-26.83v-38.89h12.61v40c0 8.58 4.686 13.6 12.611 13.6 7.703 0 12.485-5 12.485-13.6zM504.907 397.11h18.925c13.64 0 22.05 7.21 22.05 19.08 0 7.76-3.628 13.51-10.001 16.52l19.4 28.3h-14.783l-16.55-25.83h-6.47V461h-12.61zm12.61 10.77v16.52h7.091c5.307 0 8.41-3.19 8.41-8.39 0-4.84-3.103-8.13-8.41-8.13zM82.824 489.4h36.134v10.77H95.405v15.16h20.032v10.77H95.405v16.43h23.553v10.77H82.824zM128.514 489.4h50.83v11.78h-19.129v52.12h-12.61v-52.12h-19.091zM213.413 489.4h24.358c19.654 0 32.934 14.7 32.934 32s-13.28 31.95-32.934 31.95h-24.358zm12.611 11.78v40.34h11.932c11.505 0 19.828-8.85 19.828-20.17s-8.323-20.17-19.828-20.17zM282.84 489.4h36.135v10.77h-23.553v15.16h20.003v10.77h-20.003v16.43h23.553v10.77H282.84zM356.604 489.4h12.61v52.12h23.554v11.78h-36.164zM422.122 489.4h16.49l23.466 63.9h-13.396l-5.927-16.62H417.96l-5.937 16.62h-13.328zm16.733 36.24-8.498-24-8.497 24zM494.634 489.4h18.955c13.58 0 22.04 7.21 22.04 19.08 0 7.76-3.629 13.51-10.002 16.52l19.401 28.3h-14.793l-16.56-25.84h-6.47v25.84h-12.61zm12.61 10.77v16.52h7.092c5.306 0 8.41-3.19 8.41-8.39 0-4.84-3.104-8.13-8.41-8.13zM552.983 489.4h36.125v10.77h-23.563v15.16h20.012v10.77h-20.012v16.43h23.553v10.77h-36.115zM646.138 534.22l9.914 7.85c-5.666 7.94-14.881 13-26.124 13-19.566 0-32.982-15.51-32.982-33.77s13.367-33.77 32.982-33.77c11.243 0 20.458 5.2 26.124 13l-9.914 7.94a19.401 20 0 0 0-16.21-8.76c-11.64 0-20.012 9.4-20.012 21.63S618.239 543 629.928 543a19.401 20 0 0 0 16.21-8.78zM666.936 489.4h12.61v25.47h31.256V489.4h12.61v63.9h-12.61v-26.66h-31.285v26.66h-12.61zM740.699 489.4h36.125v10.77h-23.553v15.16h20.012v10.77h-20.012v16.43h23.553v10.77h-36.125zM791.433 489.4h18.945c13.64 0 22.05 7.21 22.05 19.08 0 7.76-3.628 13.51-10.011 16.52l19.401 28.3h-14.793l-16.56-25.84h-6.46v25.84h-12.61zm12.61 10.77v16.52h7.082c5.316 0 8.41-3.19 8.41-8.39 0-4.84-3.094-8.13-8.41-8.13zM892.989 534.22l9.923 7.85c-5.674 7.94-14.88 13-26.123 13-19.566 0-32.982-15.51-32.982-33.77s13.377-33.77 32.982-33.77c11.243 0 20.449 5.2 26.123 13l-9.923 7.94a19.401 20 0 0 0-16.2-8.76c-11.69 0-20.013 9.4-20.013 21.63S865.1 543 876.79 543a19.401 20 0 0 0 16.2-8.78zM913.797 489.4h12.61v25.47h31.256V489.4h12.61v63.9h-12.61v-26.66h-31.256v26.66h-12.61zM987.521 489.4h36.125v10.77h-23.514v15.16h20.012v10.77h-20.012v16.43h23.553v10.77H987.52z"/><g><path transform="matrix(0 1 -.97006 0 958.536 -151.36)" style="fill:none" d="M151.36-151.36h836.76v1139.5H151.36z"/></g></svg>